<svg xmlns="http://www.w3.org/2000/svg" viewBox="0 0 1088.38 409.56">
  <path fill="#0f2647" d="M1088.38,289.8c0,65.99-54.97,119.68-122.53,119.68h-162.66c-7.86,0-14.23-6.4-14.23-14.3v-42.91c0-7.9,6.37-14.3,14.23-14.3h162.66c28.32,0,51.37-21.6,51.37-48.17s-23.05-48.15-51.37-48.15h-89.15c-62.13-5.74-110.86-58.02-110.86-120.17,0-65.99,54.95-119.68,122.53-119.68h162.66c7.86,0,14.23,6.4,14.23,14.3v42.91c0,7.9-6.37,14.3-14.23,14.3h-162.66c-28.34,0-51.37,21.62-51.37,48.17s23.04,48.15,51.37,48.15h72.81v.5h4.68c67.56,0,122.53,53.69,122.53,119.67Z"/>
  <path fill="#0f2647" d="M523.32,409.56h-62.73c-4.31,0-8.39-1.94-11.11-5.29l-130-160.28c-2.38-2.94-5.96-4.64-9.74-4.64h-44.9c-5.2,0-9.41,4.21-9.41,9.41v146.5c0,7.9-6.4,14.3-14.3,14.3h-42.91c-7.9,0-14.3-6.4-14.3-14.3v-183.26h.04v-29.86c0-7.9,6.4-14.3,14.3-14.3h176c28.48,0,51.64-21.62,51.64-48.17s-23.15-48.15-51.64-48.15h-174.72c-7.9,0-14.3-6.4-14.3-14.3V14.3c0-7.9,6.4-14.3,14.3-14.3h174.72c67.91,0,123.15,53.67,123.15,119.67,0,53.37-36.15,98.71-85.91,114.09-3.16.98-4.29,4.87-2.21,7.44l122.37,150.88c5.69,7.01.7,17.48-8.33,17.48Z"/>
  <rect fill="#0f2647" y="1.66" width="71.52" height="407.9" rx="14.3" ry="14.3"/>
  <rect fill="#0f2647" x="605.93" y="1.66" width="71.52" height="407.9" rx="14.3" ry="14.3"/>
</svg>
